PathFileType	4	(x/y/z)	S10_BK_Cal_T01
DataRate	CameraRate	NumFrames	NumMarkers	Units	OrigDataRate	OrigDataStartFrame	OrigNumFrames
240	240	5	51	mm	240	1801	2400
Frame#	Time	Sternum			R.Acromium			L.Acromium			Top.Head			R.ASIS			L.ASIS			R.PSIS			L.PSIS			R.Great.Tro			L.Great.Tro			R.Iliac.Crest			L.Iliac.Crest			V.Sacral			R.Thigh.Upper.Post			R.Thigh.Lower.Ant			R.Thigh.Lower.Post			R.Thigh.Upper.Ant			R.Knee.Lat			R.Knee.Med			R.Shank.Upper.Post			R.Shank.Lower.Ant			R.Shank.Lower.Post			R.Shank.Upper.Ant			R.Ankle.Lat			R.Ankle.Med			R.Heel.Upper			R.Heel.Med			R.Heel.Lat			R.Toe.Lat			R.Toe.Med			R.Toe.Tip			L.Thigh.Upper.Post			L.Thigh.Lower.Ant			L.Thigh.Lower.Post			L.Thigh.Upper.Ant			L.Knee.Lat			L.Knee.Med			L.Shank.Upper.Post			L.Shank.Lower.Ant			L.Shank.Lower.Post			L.Shank.Upper.Ant			L.Ankle.Lat			L.Ankle.Med			L.Heel.Upper			L.Heel.Med			L.Heel.Lat			L.Toe.Lat			L.Toe.Med			L.Toe.Tip			Cervical.Spine			Back			
		X1	Y1	Z1	X2	Y2	Z2	X3	Y3	Z3	X4	Y4	Z4	X5	Y5	Z5	X6	Y6	Z6	X7	Y7	Z7	X8	Y8	Z8	X9	Y9	Z9	X10	Y10	Z10	X11	Y11	Z11	X12	Y12	Z12	X13	Y13	Z13	X14	Y14	Z14	X15	Y15	Z15	X16	Y16	Z16	X17	Y17	Z17	X18	Y18	Z18	X19	Y19	Z19	X20	Y20	Z20	X21	Y21	Z21	X22	Y22	Z22	X23	Y23	Z23	X24	Y24	Z24	X25	Y25	Z25	X26	Y26	Z26	X27	Y27	Z27	X28	Y28	Z28	X29	Y29	Z29	X30	Y30	Z30	X31	Y31	Z31	X32	Y32	Z32	X33	Y33	Z33	X34	Y34	Z34	X35	Y35	Z35	X36	Y36	Z36	X37	Y37	Z37	X38	Y38	Z38	X39	Y39	Z39	X40	Y40	Z40	X41	Y41	Z41	X42	Y42	Z42	X43	Y43	Z43	X44	Y44	Z44	X45	Y45	Z45	X46	Y46	Z46	X47	Y47	Z47	X48	Y48	Z48	X49	Y49	Z49	X50	Y50	Z50	X51	Y51	Z51	

1801	7.5	853.16	1240.7	314.13	729.68	1401.9	466.51	734.83	1431.3	159.43	724.93	1729.2	333.49	763.21	958.4	424.22	762.91	972.58	190.74	569.3	1023.2	341.33	577.41	1026.5	259.83	683.75	901.43	501.67	689.87	920.14	131.16	687.61	1057.3	470.27	710.71	1061.2	163.39	542.52	998.13	303.36	740.73	708.26	530.1	819.15	646.46	504.47	761.82	620.76	533.77	799.11	735.46	495.05	797.06	495.54	511.44	799.03	487.39	384.81	678.2	297.35	524.84	724.76	218.21	518.95	658.95	225.36	526.57	750.19	290.93	519.21	645.63	112.2	514.16	668.87	110.62	436.32	582.08	63.772	466.93	595.15	36.516	440.86	582.81	39.614	501.53	748.73	38.791	567.45	789.58	44.435	462.73	842.89	61.216	512.16	711.55	654.03	111.74	807.04	598.55	112.02	743.94	564.16	121.19	782.35	686.26	101.61	800.27	494.91	113.05	829.52	482.18	238.86	692.51	313.15	94.217	731.35	209.29	93.192	673.87	237.81	94.047	750.48	284.07	91.297	665.07	107.76	90.093	685.14	105.79	177.14	592.22	78.169	132.5	604.75	46.336	164.61	596.8	48.258	100.57	770.47	41.137	52.016	804.62	46.971	156.25	856.85	57.538	107.56	658.76	1467.7	323.2	575.03	1263	307
1802	7.5042	853.13	1240.7	314.15	729.66	1401.9	466.53	734.8	1431.3	159.46	724.88	1729.2	333.54	763.2	958.4	424.22	762.89	972.57	190.74	569.28	1023.1	341.34	577.39	1026.5	259.84	683.76	901.42	501.68	689.85	920.12	131.17	687.6	1057.3	470.28	710.69	1061.2	163.39	542.51	998.11	303.37	740.75	708.25	530.1	819.17	646.45	504.45	761.84	620.76	533.77	799.12	735.45	495.04	797.08	495.53	511.43	799.04	487.38	384.8	678.21	297.35	524.84	724.76	218.21	518.94	658.95	225.36	526.57	750.2	290.92	519.21	645.63	112.2	514.16	668.87	110.62	436.32	582.08	63.773	466.93	595.15	36.515	440.86	582.81	39.613	501.53	748.73	38.791	567.45	789.58	44.435	462.73	842.89	61.215	512.16	711.55	654.02	111.74	807.04	598.55	112.02	743.94	564.15	121.19	782.34	686.25	101.61	800.28	494.91	113.05	829.53	482.18	238.86	692.51	313.15	94.218	731.36	209.29	93.193	673.88	237.81	94.048	750.49	284.07	91.298	665.07	107.76	90.093	685.14	105.79	177.14	592.22	78.168	132.5	604.75	46.335	164.61	596.8	48.258	100.57	770.47	41.141	52.012	804.62	46.971	156.25	856.85	57.538	107.56	658.72	1467.7	323.22	575.01	1263	307.03
1803	7.5083	853.1	1240.7	314.16	729.64	1401.8	466.56	734.77	1431.3	159.48	724.83	1729.2	333.59	763.2	958.39	424.21	762.87	972.57	190.74	569.27	1023.1	341.35	577.37	1026.5	259.85	683.77	901.41	501.68	689.83	920.11	131.17	687.58	1057.3	470.29	710.66	1061.2	163.39	542.5	998.09	303.39	740.77	708.25	530.09	819.19	646.45	504.44	761.87	620.76	533.77	799.14	735.45	495.03	797.1	495.52	511.43	799.05	487.38	384.8	678.22	297.34	524.84	724.77	218.2	518.94	658.96	225.36	526.57	750.21	290.91	519.2	645.63	112.2	514.16	668.87	110.61	436.32	582.08	63.773	466.93	595.15	36.514	440.86	582.81	39.612	501.53	748.73	38.792	567.45	789.58	44.434	462.73	842.89	61.215	512.16	711.55	654.01	111.74	807.04	598.54	112.03	743.95	564.14	121.19	782.34	686.25	101.61	800.29	494.9	113.05	829.54	482.18	238.86	692.52	313.14	94.218	731.36	209.29	93.194	673.88	237.81	94.048	750.49	284.07	91.298	665.07	107.76	90.094	685.14	105.79	177.14	592.22	78.166	132.5	604.75	46.334	164.61	596.8	48.258	100.57	770.47	41.147	52.009	804.61	46.97	156.24	856.85	57.537	107.56	658.69	1467.7	323.24	574.98	1263	307.05
1804	7.5125	853.08	1240.7	314.18	729.61	1401.8	466.58	734.75	1431.3	159.51	724.79	1729.2	333.63	763.19	958.38	424.21	762.86	972.56	190.73	569.26	1023.1	341.36	577.35	1026.5	259.86	683.78	901.4	501.68	689.82	920.09	131.17	687.57	1057.3	470.29	710.63	1061.2	163.39	542.49	998.07	303.4	740.79	708.24	530.09	819.2	646.44	504.43	761.89	620.75	533.76	799.15	735.44	495.02	797.12	495.51	511.42	799.06	487.37	384.79	678.23	297.34	524.84	724.78	218.2	518.94	658.97	225.35	526.57	750.22	290.91	519.2	645.63	112.2	514.16	668.87	110.61	436.32	582.08	63.773	466.93	595.15	36.513	440.86	582.81	39.612	501.53	748.73	38.792	567.45	789.58	44.434	462.73	842.89	61.213	512.16	711.55	654	111.74	807.04	598.54	112.03	743.95	564.13	121.19	782.34	686.24	101.61	800.3	494.9	113.05	829.55	482.17	238.86	692.53	313.14	94.218	731.37	209.29	93.194	673.89	237.81	94.048	750.5	284.07	91.299	665.07	107.76	90.094	685.15	105.79	177.14	592.22	78.165	132.5	604.75	46.334	164.61	596.8	48.258	100.57	770.47	41.152	52.004	804.61	46.968	156.24	856.85	57.536	107.56	658.66	1467.6	323.26	574.96	1263	307.07
1805	7.5167	853.05	1240.7	314.19	729.59	1401.8	466.61	734.72	1431.3	159.53	724.74	1729.2	333.68	763.19	958.38	424.2	762.84	972.56	190.73	569.25	1023.1	341.37	577.34	1026.5	259.87	683.8	901.39	501.68	689.8	920.08	131.17	687.56	1057.2	470.3	710.61	1061.2	163.39	542.48	998.05	303.42	740.81	708.24	530.09	819.22	646.44	504.42	761.92	620.75	533.76	799.17	735.44	495.01	797.14	495.5	511.42	799.07	487.37	384.78	678.24	297.34	524.84	724.79	218.2	518.93	658.98	225.35	526.56	750.23	290.9	519.19	645.63	112.2	514.16	668.87	110.61	436.32	582.08	63.774	466.93	595.15	36.512	440.86	582.81	39.612	501.53	748.73	38.792	567.45	789.58	44.433	462.73	842.89	61.212	512.16	711.55	653.99	111.74	807.05	598.53	112.03	743.96	564.12	121.19	782.34	686.24	101.61	800.3	494.9	113.05	829.56	482.17	238.85	692.53	313.14	94.217	731.37	209.29	93.195	673.9	237.81	94.048	750.51	284.07	91.299	665.08	107.76	90.095	685.15	105.8	177.14	592.22	78.163	132.51	604.76	46.333	164.61	596.8	48.258	100.57	770.47	41.158	52	804.61	46.964	156.24	856.85	57.535	107.56	658.62	1467.6	323.27	574.94	1263	307.09
